<!-- Original source https://docs.circonus.com//img/library/apache-activemq.svg -->

<svg id="Layer_1" data-name="Layer 1" xmlns="http://www.w3.org/2000/svg" viewBox="0 0 100 100"><defs><style>.cls-1{fill:#c12766;}.cls-2{fill:#3e489f;}.cls-3{fill:#714099;}.cls-4{fill:#78932c;}.cls-5{fill:#cf242a;}.cls-6{fill:#fff;}.cls-7{fill:none;stroke:#fff;stroke-miterlimit:1.01;stroke-width:0.94px;}</style></defs><g id="layer1"><g id="g4574"><g id="g4485"><path id="path5019-02-9" class="cls-1" d="M74.05,68.24l-18.68,0L46.08,52l9.39-16.12,18.68.06,9.28,16.18Z"/><path id="path5019-0-5-1" class="cls-2" d="M44.53,85.16,25.85,85.1,16.57,68.92,26,52.79l18.68.06L53.92,69Z"/><path id="path5019-4-1-2" class="cls-3" d="M73.86,102.15l-18.67-.05L45.9,85.91l9.39-16.12L74,69.85,83.25,86Z"/><path id="path5019-0-4-9-8" class="cls-4" d="M44.68,51.46,26,51.4,16.72,35.22l9.39-16.13,18.67.06,9.29,16.18Z"/><path id="path5019-0-0-7-9" class="cls-5" d="M74,34.52l-18.67-.06L46.07,18.28,55.46,2.15l18.67.06,9.29,16.18Z"/><circle id="path5553" class="cls-6" cx="64.74" cy="18.34" r="2.83"/><circle id="path5553-1" class="cls-6" cx="35.4" cy="35.27" r="2.83"/><circle id="path5553-3" class="cls-6" cx="35.24" cy="68.98" r="2.83"/><circle id="path5553-7" class="cls-6" cx="64.57" cy="85.97" r="2.83"/><path id="path5592" class="cls-7" d="M63,19.13l-25.7,14.7"/><path id="path5592-7" class="cls-7" d="M35.29,37.48l.09,29.58"/><path id="path5592-7-1" class="cls-7" d="M37.33,70.21l25.46,15.1"/><circle id="path5553-70" class="cls-6" cx="64.76" cy="52.06" r="2.83"/><path id="path5592-7-7" class="cls-7" d="M64.65,20.33l.09,29.58"/><path id="path5592-7-4" class="cls-7" d="M64.82,54.23l.08,29.58"/><path id="path5592-5" class="cls-7" d="M63,53.12,37.3,67.83"/><path id="path5592-7-1-3" class="cls-7" d="M37.42,36.51,62.88,51.62"/></g></g></g></svg>
